inDegrees=no
num_controls=7
num_derivatives=13
num_iterations=137
num_multipliers=7
num_parameters=0
num_slacks=7
num_states=26
objective=0.499059
objective_accelerations=0.032315
objective_balance=0.003327
objective_effort=0.036210
objective_height=0.421742
objective_ligament=0.005466
solver_duration=1456.608646
status=Solve_Succeeded
success=true
DataType=double
version=3
OpenSimVersion=4.5
endheader
time	/jointset/ground_pelvis/pelvis_tilt/value	/jointset/ground_pelvis/pelvis_tx/value	/jointset/ground_pelvis/pelvis_ty/value	/jointset/hip_r/hip_flexion_r/value	/jointset/hip_r/hip_adduction_r/value	/jointset/hip_r/hip_rotation_r/value	/jointset/back/lumbar_extension/value	/jointset/patellofemoral_r/patellar_flexion_r/value	/jointset/knee_r/knee_flexion_r/value	/jointset/knee_r/knee_adduction_r/value	/jointset/knee_r/knee_rotation_r/value	/jointset/ankle_r/ankle_angle_r/value	/jointset/subtalar_r/subtalar_angle_r/value	/jointset/ground_pelvis/pelvis_tilt/speed	/jointset/ground_pelvis/pelvis_tx/speed	/jointset/ground_pelvis/pelvis_ty/speed	/jointset/hip_r/hip_flexion_r/speed	/jointset/hip_r/hip_adduction_r/speed	/jointset/hip_r/hip_rotation_r/speed	/jointset/back/lumbar_extension/speed	/jointset/patellofemoral_r/patellar_flexion_r/speed	/jointset/knee_r/knee_flexion_r/speed	/jointset/knee_r/knee_adduction_r/speed	/jointset/knee_r/knee_rotation_r/speed	/jointset/ankle_r/ankle_angle_r/speed	/jointset/subtalar_r/subtalar_angle_r/speed	/forceset/tau_hip_flexion_r	/forceset/tau_hip_adduction_r	/forceset/tau_hip_rotation_r	/forceset/tau_knee_flexion_r	/forceset/tau_ankle_angle_r	/forceset/tau_subtalar_angle_r	/forceset/tau_lumbar_extension	lambda_cid13_p0	lambda_cid14_p0	lambda_cid14_p1	lambda_cid14_p2	lambda_cid14_p3	lambda_cid14_p4	lambda_cid14_p5	/jointset/ground_pelvis/pelvis_tilt/accel	/jointset/ground_pelvis/pelvis_tx/accel	/jointset/ground_pelvis/pelvis_ty/accel	/jointset/hip_r/hip_flexion_r/accel	/jointset/hip_r/hip_adduction_r/accel	/jointset/hip_r/hip_rotation_r/accel	/jointset/back/lumbar_extension/accel	/jointset/patellofemoral_r/patellar_flexion_r/accel	/jointset/knee_r/knee_flexion_r/accel	/jointset/knee_r/knee_adduction_r/accel	/jointset/knee_r/knee_rotation_r/accel	/jointset/ankle_r/ankle_angle_r/accel	/jointset/subtalar_r/subtalar_angle_r/accel	gamma_cid13_p0	gamma_cid14_p0	gamma_cid14_p1	gamma_cid14_p2	gamma_cid14_p3	gamma_cid14_p4	gamma_cid14_p5
1	-0.1713990975756202	0.03879709972889819	0.7523294292722151	1.081880239860563	-0.2362128921218756	-0.07221442849684043	-0.4362157021215377	1.15295392740021	1.152953927399606	-0.02909536078711028	0.1741505253095086	0.436308078214799	0.1040026161744892	-0.0002876812485847678	0.005332611317717524	0.01397238110833722	-0.04053282713367184	0.002343308951390725	-0.01152228921194329	0.009519018303558169	-0.04995057044634694	-0.04995057044634724	-0.0006445061088227012	-0.0006763802664163022	-0.01032253273870834	0.0002569511799530625	-0.1929994158185926	0.003457296165035177	0.01400690293965236	-0.4500969565220244	-0.04226793334136655	0.01881899530249116	0.2414424643376283	-3.29579749044117	-59.96046644392525	0.1864097433802064	-2.439016896506878	19.9801055641552	-772.4038250606371	75.73182514115295	0.8880822376418533	0.02431393745037826	1.246584885277256	-3.879733126775854	0.1419245035372375	-0.6152495969270362	0.4233738553854968	-4.391292330111225	-4.391292330111138	0.438250313059461	-0.03096266695396699	-1.57967955999357	-0.3581936351479991	8.383564332303688e-10	-9.683120717031631e-10	6.435264939017691e-09	8.044177050154367e-09	3.828488735879281e-09	-2.577023799226086e-09	4.70938886229708e-09
1.01	-0.171358499761759	0.03885177577179923	0.7525313124306935	1.081281943069916	-0.2361824440119832	-0.07235986562900273	-0.436097557354192	1.152235166448176	1.152235166448204	-0.02907934825468665	0.1741421050704253	0.4361260619942828	0.1039871994684897	0.008373125669502999	0.005617870658783101	0.02639989680359356	-0.07910946902055735	0.003742795786329988	-0.0175657784225841	0.01422270134720977	-0.09380256561051238	-0.09380256561051463	0.003853045446244335	-0.001001944389711097	-0.02606491035503553	-0.003339640823917508	-0.1934357237055565	0.003459901285291831	0.01400787220168053	-0.4496460718038693	-0.04245338172090907	0.01885982765180423	0.2419299340860822	-3.325414357970425	-60.0172005002871	0.2048207577200176	-2.454072717848104	19.82750270393088	-772.5577756817086	75.73197563992818	0.8499628866521068	0.03292378005633791	1.240180652788323	-3.844069861812952	0.1384360449661996	-0.5989941452403434	0.5107804539124084	-4.38229526804858	-4.38229526804893	0.4564138530317493	-0.03249143831495433	-1.569147447912915	-0.3602905614563822	1.548356280826955e-09	-8.865706876225e-10	1.257171152960215e-08	1.381245543254952e-08	4.186028800161701e-09	-5.922681763186631e-09	1.064257524759564e-08
1.02	-0.1712323172851644	0.0389097627776352	0.7528573398943522	1.08029839183197	-0.2361381059794377	-0.07256575676570165	-0.4359289927713395	1.151077857112804	1.151077857113464	-0.02901817895144345	0.1741306015594457	0.4357870958804823	0.1039358371267621	0.01682925129799209	0.005994803904702957	0.03880124214438615	-0.1175837165941692	0.00512129348102723	-0.0236130901175334	0.0196029813931539	-0.1376602471138525	-0.1376602471138572	0.008386848053370253	-0.00129303464491126	-0.04171251138978573	-0.006932175965781631	-0.1938720315925065	0.00346250640553565	0.0140088414636945	-0.4491951870857133	-0.04263883010045647	0.01890066000109396	0.2424174038345503	-3.373462866610141	-60.08467798860598	0.2243726195258589	-2.472762197909005	19.69611712797319	-772.8782337583312	75.75106662957094	0.8471459797220717	0.04264871842132246	1.241350814384504	-3.859254264121192	0.1377266754888173	-0.6160140937887435	0.5586932558435354	-4.392429597946108	-4.392429597946128	0.445500523471241	-0.0240678933350224	-1.560724243678018	-0.3573822627466782	2.192433925249046e-09	-1.677784192088882e-10	1.721764355416683e-08	2.010704221656596e-08	3.737295860415718e-09	-8.030097385931019e-09	1.486346442938972e-08
1.03	-0.1710226148256847	0.03897198138698815	0.7533071975346296	1.078930699531467	-0.2360801030750525	-0.07283210713709874	-0.4357032399457471	1.149482007323499	1.149482007323542	-0.02891144920566032	0.174116369949493	0.4352921174074246	0.1038485493624753	0.02507326524140835	0.006464668616126166	0.05116040800576813	-0.1559263671790282	0.006474782227677918	-0.02965335573696588	0.02566346041339147	-0.1815038618377449	-0.1815038618377482	0.01296913360615117	-0.001548086374224153	-0.05726822372055564	-0.01052581159817065	-0.194078777693487	0.003460060962757415	0.01401774797695108	-0.4485206872052494	-0.0426254320918165	0.01888465382236417	0.2427105972045057	-3.440309574484629	-60.07009535055394	0.2283092815435973	-2.482910202623592	19.52371251113634	-772.8324854791916	75.70257605486189	0.8073338683948313	0.05151859848503879	1.231715748546322	-3.817513163840268	0.1334894232352901	-0.5974870725339744	0.6471067272310108	-4.379450644183009	-4.379450644182751	0.4660996731416418	-0.0254372994362786	-1.550751754681814	-0.3604127546609958	2.835838894128539e-09	5.575143684326144e-10	2.184836624642517e-08	2.64069994944765e-08	3.280335645118421e-09	-1.012487788274462e-08	1.906688119073987e-08
1.04	-0.170731611273423	0.0390393712936517	0.7538803500888269	1.077180432183481	-0.2360086993933994	-0.07315875102000129	-0.4354134060295037	1.147447896740039	1.147447896739469	-0.0287585951839506	0.1740997451249035	0.4346420304056644	0.1037253135336299	0.03308946985456979	0.007029063366822699	0.06346022492840593	-0.1940987260907697	0.007801448933613311	-0.03567179241693675	0.03241919951831666	-0.2253124059445249	-0.2253124059445256	0.0176117032373396	-0.001771677571808222	-0.07273421712753789	-0.01412178887760089	-0.1942855237944617	0.003457615519966155	0.01402665449022794	-0.4478461873247841	-0.04261203408318098	0.0188686476436101	0.2430037905744674	-3.526461656710569	-60.06618228202011	0.2335499348247858	-2.496889441453768	19.37092846570618	-772.9532566576808	75.67357377580038	0.8015841136710791	0.06155472627603992	1.229481026635667	-3.825195929497743	0.1323622673457433	-0.6116483058964317	0.6977452727808049	-4.385415474523599	-4.385415474523373	0.4575573391527494	-0.01777578698923201	-1.542780458920393	-0.3578505921549138	3.540556760096434e-09	1.084393946975338e-09	2.480102282939828e-08	3.337169729816654e-08	3.20116271221554e-09	-1.177324107231495e-08	2.171176810418225e-08
1.05	-0.1703615463550082	0.03911288016541505	0.7545761581688948	1.075049321100854	-0.2359241785919932	-0.0735454533183369	-0.4350526271631233	1.144975936667008	1.144975936666415	-0.02855898515962484	0.1740810581634905	0.4338377225693241	0.1035660862165645	0.04088697882782181	0.00768876293740615	0.07568658241227075	-0.2320894582725695	0.009097681427372502	-0.04166182665452556	0.03984679388037899	-0.2690672770798941	-0.2690672770799108	0.02232272311781221	-0.001961669604743771	-0.08811300255994615	-0.01772428319150236	-0.1942307024104409	0.003423527532761168	0.01404385392854716	-0.4469662275074538	-0.0423786876668834	0.01880417392350697	0.2430669867608668	-3.632544659729402	-59.97205098491868	0.2303986278725258	-2.50594523244552	19.17562280441504	-772.6921664643122	75.59420869832007	0.7633554274327404	0.07058599137046802	1.216989110286024	-3.780905937507089	0.1275069339752324	-0.5916521755051113	0.7817995356626037	-4.36867405227887	-4.368674052281429	0.479740234138896	-0.01899470554647745	-1.533276615660119	-0.3615308808120984	4.24719065409834e-09	1.605073112733726e-09	2.770123984645623e-08	4.03571682432872e-08	3.133795631887482e-09	-1.340765372103392e-08	2.430795095987753e-08
1.06	-0.1699146021192062	0.03919346771666834	0.7553937850240062	1.072539323881416	-0.2358268448269277	-0.0739918501976191	-0.4346142657495598	1.142066797658775	1.14206679765816	-0.02831189175215832	0.1740605945229254	0.4328800570726012	0.1033708175503998	0.04846533333230277	0.008444799264812907	0.08782397993711438	-0.2698759534538078	0.0103640416645007	-0.04761070860471361	0.04793570895219273	-0.3127481929846748	-0.3127481929847091	0.02710837986406218	-0.002127013401706839	-0.1034057492027167	-0.02133005869757913	-0.1941758810263905	0.003389439545546694	0.01406105336687381	-0.4460862676901199	-0.04214534125059081	0.01873970020338574	0.2431301829472942	-3.759320727406774	-59.8884716178355	0.2287930300952694	-2.519123355923143	18.9982493861581	-772.5969376971528	75.53520199734723	0.7577532199168471	0.08082207764073977	1.211689034831433	-3.784348529385457	0.1263878160195292	-0.6034178484162938	0.8300094147309279	-4.370624428405901	-4.370624428405953	0.472484712308232	-0.01284613979470278	-1.525572700992786	-0.3585068305899782	5.165609510791876e-09	2.337162564925913e-09	2.835973986026214e-08	4.817623246941599e-08	3.08827091181733e-09	-1.527721246850427e-08	2.470255443166253e-08
1.07	-0.1693929177442723	0.03928210062637093	0.7563322952612141	1.069652497738063	-0.235717017947953	-0.07449753573450046	-0.4340918121163976	1.138721285365101	1.138721285365197	-0.02801655030951366	0.1740386368128297	0.4317698887447086	0.1031394472899884	0.05583772561153964	0.009298213845170961	0.09985831103217888	-0.3074507303999347	0.01159576530303198	-0.05351790304598512	0.05665821407341742	-0.3563348021027883	-0.3563348021028139	0.03197326723193301	-0.002261079330305639	-0.1186135912344064	-0.02494453078691605	-0.1938557249460969	0.003356778619826202	0.01408507886894587	-0.4449959699753798	-0.04168981917607054	0.0186057014746964	0.2429550216376739	-3.907664775727195	-59.71497796901028	0.2057042063728614	-2.520844436875342	18.77998350123532	-772.1116942545231	75.39692691268202	0.7219115499096822	0.09006643190018819	1.19633821752844	-3.738259187834243	0.1207395712424906	-0.5830914075807657	0.9088505193640585	-4.349760838592458	-4.349760838591095	0.4954972082842559	-0.01315685552926504	-1.516242355723071	-0.3629866833093014	6.095293525075393e-09	3.080497245119899e-09	2.88989996079376e-08	5.60396367636835e-08	3.043908019420471e-09	-1.715927898718481e-08	2.498005261706931e-08
